# xmcd
# 
# Track frame offsets:
#     182
#     9590
#     22307
#     36980
#     50752
#     64520
#     77295
#     90645
#     102010
#     114525
#     128457
#     139062
#     151880
#     161807
#     176125
#     188777
#     202002
#     214032
#     226757
#     242270
# 
# Disc length: 3392
# 
# Revision: 8
# Processed by: cddbd v1.5.2PL0 Copyright (c) Steve Scherf et al.
# Submitted via: fre:ac v1.0.27
# 
DISCID=030d3e14
DTITLE=Chess CD - The Incredible Chess CD
DYEAR=1990
DGENRE=Blues
TTITLE0=Chuck Berry - Bye Bye Johnny
TTITLE1=Bo Diddleyl - Hush Your Mouth
TTITLE2=Muddy Waters - Still A Fool
TTITLE3=Little Walter - You're So Fine
TTITLE4=Elmore James - Dust My Broom
TTITLE5=Howlin' Wolf - Forty Four
TTITLE6=John Lee Hooker - Ground Hog Blues
TTITLE7=J. Rogers - You're The One
TTITLE8=Etta James - Something's Got A Hold On Me
TTITLE9=Memphis Slim - Guess I'm A Fool
TTITLE10=Jimmy McCracklin - Everybody Rock
TTITLE11=Jimmy Witherspoon - When The Lights Go Out
TTITLE12=Clarence Henry - It Won't Be Long
TTITLE13=Lowell Fulson - Reconsider Baby
TTITLE14=Buddy Guy - When My Left Eye Jumps
TTITLE15=Sonny Boy Williamson - Too Young To Die
TTITLE16=Otis Rush - You Know My Love
TTITLE17=Albert King - California Blues
TTITLE18=Little Milton - Blind Man
TTITLE19=Otis Spann - I'm In Love With You Baby
EXTD=YEAR: 1990
EXTT0=
EXTT1=
EXTT2=
EXTT3=
EXTT4=
EXTT5=
EXTT6=
EXTT7=
EXTT8=
EXTT9=
EXTT10=
EXTT11=
EXTT12=
EXTT13=
EXTT14=
EXTT15=
EXTT16=
EXTT17=
EXTT18=
EXTT19=
PLAYORDER=
